<svg id="Flat" height="512" viewBox="0 0 512 512" width="512" xmlns="http://www.w3.org/2000/svg"><path d="m488 456h-464v-320h464v240z" fill="#e9eef2"/><path d="m24 88h464v64h-464z" fill="#eb423f"/><path d="m152 280h48v48h-48z" fill="#2d85cc"/><path d="m72 280h48v48h-48z" fill="#2d85cc"/><path d="m232 280h48v48h-48z" fill="#2d85cc"/><path d="m312 280h48v48h-48z" fill="#2d85cc"/><path d="m392 280h48v48h-48z" fill="#2d85cc"/><path d="m232 200h48v48h-48z" fill="#eb423f"/><path d="m312 200h48v48h-48z" fill="#eb423f"/><g fill="#2d85cc"><path d="m392 200h48v48h-48z"/><path d="m152 360h48v48h-48z"/><path d="m72 360h48v48h-48z"/><path d="m232 360h48v48h-48z"/><path d="m312 360h48v48h-48z"/><path d="m392 360h48v48h-48z"/></g><rect fill="#d13330" height="64" rx="16" width="32" x="80" y="56"/><rect fill="#d13330" height="64" rx="16" width="32" x="160" y="56"/><rect fill="#d13330" height="64" rx="16" width="32" x="240" y="56"/><rect fill="#d13330" height="64" rx="16" width="32" x="320" y="56"/><rect fill="#d13330" height="64" rx="16" width="32" x="400" y="56"/><path d="m280 200v11.32l-36.68 36.68h-11.32v-11.32l36.68-36.68z" fill="#d13330"/><path d="m152 200h48v48h-48z" fill="#eb423f"/><path d="m200 200v11.32l-36.68 36.68h-11.32v-11.32l36.68-36.68z" fill="#d13330"/><path d="m360 200v11.32l-36.68 36.68h-11.32v-11.32l36.68-36.68z" fill="#d13330"/></svg>