<svg viewBox="0 0 512 512" xmlns="http://www.w3.org/2000/svg" xmlns:xlink="http://www.w3.org/1999/xlink"><linearGradient id="a" gradientTransform="matrix(1 0 0 -1 0 -15158)" gradientUnits="userSpaceOnUse" x1="0" x2="512" y1="-15414" y2="-15414"><stop offset="0" stop-color="#00f1ff"/><stop offset=".231" stop-color="#00d8ff"/><stop offset=".5138" stop-color="#00c0ff"/><stop offset=".7773" stop-color="#00b2ff"/><stop offset="1" stop-color="#00adff"/></linearGradient><path d="m512 256c0 141.386719-114.613281 256-256 256s-256-114.613281-256-256 114.613281-256 256-256 256 114.613281 256 256zm0 0" fill="url(#a)"/><g fill="#fff"><path d="m389.835938 325.746094c8.285156 0 15-6.714844 15-15v-181.527344c0-32.101562-26.117188-58.21875-58.21875-58.21875h-177.125c-32.101563 0-58.21875 26.117188-58.21875 58.21875v253.5625c0 32.101562 26.117187 58.21875 58.21875 58.21875h177.125c32.105468 0 58.222656-26.117188 58.222656-58.21875 0-8.285156-6.71875-15-15-15-8.285156 0-15 6.714844-15 15 0 15.558594-12.660156 28.21875-28.222656 28.21875h-177.125c-15.558594 0-28.21875-12.660156-28.21875-28.21875v-253.5625c0-15.558594 12.660156-28.21875 28.21875-28.21875h177.125c15.5625 0 28.222656 12.660156 28.222656 28.21875v181.527344c-.003906 8.285156 6.714844 15 14.996094 15zm0 0"/><path d="m310.601562 299.8125c8.28125 0 15-6.714844 15-15v-13.8125h13.8125c8.285157 0 15-6.714844 15-15s-6.714843-15-15-15h-13.8125v-13.8125c0-8.285156-6.71875-15-15-15-8.285156 0-15 6.714844-15 15v13.8125h-13.816406c-8.28125 0-15 6.714844-15 15s6.71875 15 15 15h13.816406v13.8125c0 8.285156 6.714844 15 15 15zm0 0"/><path d="m234.242188 316.382812c8.285156 0 15-6.71875 15-15v-61.230468c0-24.160156-19.652344-43.8125-43.8125-43.8125-24.15625 0-43.8125 19.652344-43.8125 43.8125v61.230468c0 8.28125 6.71875 15 15 15 8.285156 0 15-6.71875 15-15v-20.296874h27.628906v20.296874c-.003906 8.28125 6.714844 15 14.996094 15zm-42.625-65.296874v-10.933594c0-7.617188 6.195312-13.8125 13.8125-13.8125 7.617187 0 13.8125 6.195312 13.8125 13.8125v10.933594zm0 0"/></g></svg>