<svg id="Layer_1" height="512" viewBox="0 0 150 150" width="512" xmlns="http://www.w3.org/2000/svg" data-name="Layer 1"><circle cx="75" cy="75" fill="#77b3d5" r="64"/><path d="m72.8 58.6c.19.56-.29 1.52-.94 1.39 0 0-.18.62.62 1.35 0 0 .19.65-.14.76a.62.62 0 0 1 .14.63 1.9 1.9 0 0 0 .14 1.76c.48.92.9 2.34-1 2.6s-2.94 1.1-3 2.3c-.07.89 0 1.89-.15 2.92l-4.31 2.91-6-.36a49.06 49.06 0 0 0 -.25-10.18 6.23 6.23 0 0 0 -2-3.4l-.18-5.59 4.11-4.22 2.95-2.68 5.54.75s2.26 2.56 2.19 5.46c0 0-.62.25-.21 1s2.3 2 2.49 2.6z" fill="#fcd462"/><path d="m68.72 50.14s-5-1.28-6.18.31 1.13 2.17 1.35 3.53-1.89 1.67-2.52 3.89.13 3.2.13 3.2l-.68.37s-1.17-2.5-2.78-3.07-2.57 1-1.77 2.7 1.58 1.93 1.58 1.93l-.69 1.05a16.79 16.79 0 0 1 -2.37-3.46c-1.06-2.06-2.57-4.23-2.15-6.5s.81-3.37 2.63-4.93a16.07 16.07 0 0 1 5.39-3.4c2.39-.92 3.79-1.33 4.73-.77s4.9 1.39 3.33 5.15z" fill="#3a556a"/><path d="m86.12 52.53 4.19 12.66a1.47 1.47 0 0 0 1.85.93 1.45 1.45 0 0 0 .93-1.85l-4.19-12.66z" fill="#2f4859"/><path d="m91.71 49.8-1.71-.45-3.87 1.28a3.54 3.54 0 0 0 2.22 6.73l3.88-1.28 3.34-2.39z" fill="#3a556a"/><path d="m101.21 39.1a40.19 40.19 0 0 1 -11.21 10.25l2.23 6.73a39.93 39.93 0 0 1 15.12 1.53c.39.12.83-.23.71-.58l-5.92-17.89a.54.54 0 0 0 -.93-.04z" fill="#e1e6e9"/><path d="m108.35 58a1.22 1.22 0 0 1 -1.54-.78l-5.81-17.57a1.22 1.22 0 0 1 2.31-.76l5.8 17.54a1.21 1.21 0 0 1 -.76 1.57z" fill="#3a556a"/><g fill="#ebf0f3"><path d="m108.02 45.02h3.96v.54h-3.96z" transform="matrix(.949 -.314 .314 .949 -8.66 36.87)"/><path d="m105.03 38.93h3.96v.55h-3.96z" transform="matrix(.449 -.893 .893 .449 23.92 117.21)"/><path d="m106.98 41.87h3.96v.54h-3.96z" transform="matrix(.79 -.612 .612 .79 -2.99 75.56)"/><path d="m111.12 50.48h.54v3.96h-.54z" transform="matrix(.449 -.893 .893 .449 14.5 128.43)"/><path d="m110.93 46.96h.55v3.96h-.55z" transform="matrix(.02 -1 1 .02 60.08 159.16)"/></g><path d="m84.69 61.4 3.16-3.66 1 2.38 2.21 5.24a12.92 12.92 0 0 0 -1.68 1.55c-.15.31 0 4.58 0 4.58l-5-.72-.23-7.86a2.16 2.16 0 0 1 .54-1.51z" fill="#f7be56"/><path d="m88 61.23 3.38-1.74a.94.94 0 0 0 .4-1.25.93.93 0 0 0 -1.24-.4l-3.39 1.75a.93.93 0 0 0 -.4 1.24.94.94 0 0 0 1.25.4z" fill="#fcd462"/><path d="m89 62.76 3.34-1.76a.93.93 0 0 0 .4-1.25.92.92 0 0 0 -1.25-.39l-3.38 1.74a.91.91 0 0 0 -.4 1.24.93.93 0 0 0 1.29.42z" fill="#fcd462"/><path d="m89.89 64.29 3.38-1.74a.93.93 0 0 0 .4-1.24.91.91 0 0 0 -1.24-.4l-3.43 1.74a.92.92 0 1 0 .85 1.64z" fill="#fcd462"/><path d="m90.75 65.52 2.86-1.47a.78.78 0 0 0 -.71-1.39l-2.9 1.47a.78.78 0 0 0 .71 1.39z" fill="#fcd462"/><path d="m45 112.69c1.16-6.78 2.77-16.13 3.64-20.9.07.37 1.25 12.47.41 20.9h28.33c-.14-4 .79-9.9 2-15.31-.5 3.28 1.63 4.72 4.18 5.3a6.16 6.16 0 0 0 7.44-6.07v-28.61l-8-.62-.66 13.47-3.52-5.53c-2.79-1.41-8.74-4-8.74-4s0 .39 0 1l-.87-.73-5.81 2.53-6.08-2.48-.57.83c0-.66 0-1 0-1s-3.38 3.13-10 3.77c-2.56.25-4.86 1.51-5.33 4 0 0-4.23 18.55-4.79 33.52z" fill="#fe7058"/><path d="m60.37 76.01 2.07 3.13-2.07 24.43 3.06 4.66 3.05-4.85-2.44-24.39 1.92-3.83-2.61-1.35z" fill="#e1e6e9"/><path d="m71.63 72-3.1-2.32s-.32 2.49-5 3.83c-4.72-1.34-5.31-4-5.31-4l-2.82 2.97c.05 1.31 3.58 6.65 3.58 6.65l4.51-4.58 4.51 4.58s3.58-5.83 3.63-7.13z" fill="#e56353"/></svg>