<?xml version="1.0" encoding="iso-8859-1"?>
<!-- Generator: Adobe Illustrator 19.0.0, SVG Export Plug-In . SVG Version: 6.00 Build 0)  -->
<svg version="1.1" id="Capa_1" xmlns="http://www.w3.org/2000/svg" xmlns:xlink="http://www.w3.org/1999/xlink" x="0px" y="0px"
	 viewBox="0 0 434.808 434.808" style="enable-background:new 0 0 434.808 434.808;" xml:space="preserve">
<g>
	
		<linearGradient id="SVGID_1_" gradientUnits="userSpaceOnUse" x1="-29.2698" y1="558.8642" x2="-29.2698" y2="491.5642" gradientTransform="matrix(5.2245 0 0 -5.2245 370.3239 2948.061)">
		<stop  offset="0" style="stop-color:#00EFD1"/>
		<stop  offset="1" style="stop-color:#00ACEA"/>
	</linearGradient>
	<path style="fill:url(#SVGID_1_);" d="M430.498,152.885c-56.424-55.902-132.18-86.204-213.159-85.682
		C136.359,68.248,61.127,99.595,4.702,156.02c-6.269,6.269-6.269,16.196,0,21.943c3.135,3.135,7.314,4.702,10.971,4.702
		s7.837-1.567,10.971-4.702c104.49-104.49,278.988-105.535,381.91-3.135c6.269,6.269,16.196,6.269,21.943,0
		C436.245,169.081,436.245,159.154,430.498,152.885z"/>
	
		<linearGradient id="SVGID_2_" gradientUnits="userSpaceOnUse" x1="-29.3823" y1="558.8642" x2="-29.3823" y2="491.5642" gradientTransform="matrix(5.2245 0 0 -5.2245 370.3239 2948.061)">
		<stop  offset="0" style="stop-color:#00EFD1"/>
		<stop  offset="1" style="stop-color:#00ACEA"/>
	</linearGradient>
	<path style="fill:url(#SVGID_2_);" d="M220.996,189.979C220.996,189.979,220.473,189.979,220.996,189.979
		c-54.335,0-105.535,21.42-144.718,60.082c-6.269,6.269-6.269,16.196,0,21.943c3.135,3.135,7.314,4.702,10.971,4.702
		c3.657,0,7.837-1.567,10.971-4.702c32.914-32.914,76.278-51.2,122.253-51.2c43.886,0,84.637,17.241,114.939,48.065
		c6.269,6.269,16.196,6.269,21.943,0c6.269-6.269,6.269-16.196,0-21.943C321.829,210.354,273.241,189.979,220.996,189.979z"/>
	
		<linearGradient id="SVGID_3_" gradientUnits="userSpaceOnUse" x1="-29.2823" y1="558.8642" x2="-29.2823" y2="491.5642" gradientTransform="matrix(5.2245 0 0 -5.2245 370.3239 2948.061)">
		<stop  offset="0" style="stop-color:#00EFD1"/>
		<stop  offset="1" style="stop-color:#00ACEA"/>
	</linearGradient>
	<path style="fill:url(#SVGID_3_);" d="M145.241,340.967c-6.269,6.269-6.269,16.196,0,21.943c3.135,3.135,7.314,4.702,10.971,4.702
		c4.18,0,7.837-1.567,10.971-4.702c28.212-28.212,73.665-29.257,100.31-3.135c6.269,6.269,16.196,6.269,21.943,0
		c6.269-6.269,6.269-16.196,0-21.943C250.776,299.171,185.992,300.738,145.241,340.967z"/>
</g>
<g>
</g>
<g>
</g>
<g>
</g>
<g>
</g>
<g>
</g>
<g>
</g>
<g>
</g>
<g>
</g>
<g>
</g>
<g>
</g>
<g>
</g>
<g>
</g>
<g>
</g>
<g>
</g>
<g>
</g>
</svg>
